<svg width="12" height="21" viewBox="0 0 12 21" fill="none" xmlns="http://www.w3.org/2000/svg">
<path d="M10.5 21C10.3684 21.0008 10.2379 20.9755 10.1161 20.9258C9.99426 20.876 9.88344 20.8027 9.79 20.71L0.79 11.71C0.696272 11.617 0.621877 11.5064 0.571109 11.3846C0.52034 11.2627 0.494202 11.132 0.494202 11C0.494202 10.868 0.52034 10.7373 0.571109 10.6154C0.621877 10.4936 0.696272 10.383 0.79 10.29L9.79 1.29C9.9783 1.1017 10.2337 0.995911 10.5 0.995911C10.6319 0.995911 10.7624 1.02188 10.8842 1.07234C11.0061 1.1228 11.1168 1.19676 11.21 1.29C11.3032 1.38324 11.3772 1.49393 11.4277 1.61575C11.4781 1.73758 11.5041 1.86814 11.5041 2C11.5041 2.13186 11.4781 2.26243 11.4277 2.38425C11.3772 2.50607 11.3032 2.61676 11.21 2.71L2.91 11L11.21 19.29C11.3037 19.383 11.3781 19.4936 11.4289 19.6154C11.4797 19.7373 11.5058 19.868 11.5058 20C11.5058 20.132 11.4797 20.2627 11.4289 20.3846C11.3781 20.5064 11.3037 20.617 11.21 20.71C11.1166 20.8027 11.0057 20.876 10.8839 20.9258C10.7621 20.9755 10.6316 21.0008 10.5 21Z" fill="black"/>
</svg>
