<svg width="24" height="24" viewBox="0 0 24 24" fill="none" xmlns="http://www.w3.org/2000/svg">
<g clip-path="url(#clip0_426_66)">
<path d="M15.95 14.08L13.17 14.77C12.9113 14.8334 12.6463 14.8669 12.38 14.87C11.9521 14.8707 11.5283 14.7861 11.1335 14.6213C10.7386 14.4565 10.3804 14.2147 10.08 13.91C9.68678 13.5121 9.40216 13.0201 9.25335 12.4808C9.10453 11.9416 9.09649 11.3732 9.23 10.83L9.93 8.05C10.1062 7.34677 10.4689 6.70416 10.98 6.19L15.17 2H4C2.93913 2 1.92172 2.42143 1.17157 3.17157C0.421427 3.92172 0 4.93913 0 6L0 20C0 21.0609 0.421427 22.0783 1.17157 22.8284C1.92172 23.5786 2.93913 24 4 24H18C19.0609 24 20.0783 23.5786 20.8284 22.8284C21.5786 22.0783 22 21.0609 22 20V8.83L17.81 13.02C17.2964 13.534 16.6539 13.9001 15.95 14.08Z" fill="black"/>
<path d="M23.293 1.293L22.707 0.706997C22.4829 0.482823 22.2167 0.304998 21.9238 0.183675C21.631 0.0623526 21.317 -9.15527e-05 21 -9.15527e-05C20.683 -9.15527e-05 20.3691 0.0623526 20.0762 0.183675C19.7833 0.304998 19.5172 0.482823 19.293 0.706997L12.393 7.607C12.1367 7.86328 11.9549 8.18439 11.867 8.536L11.173 11.313C11.1206 11.5222 11.1232 11.7414 11.1807 11.9492C11.2382 12.157 11.3486 12.3464 11.5011 12.4989C11.6536 12.6514 11.843 12.7618 12.0508 12.8193C12.2586 12.8768 12.4778 12.8794 12.687 12.827L15.464 12.133C15.8156 12.0451 16.1367 11.8633 16.393 11.607L23.293 4.707C23.5172 4.48283 23.695 4.21671 23.8163 3.92382C23.9377 3.63094 24.0001 3.31702 24.0001 3C24.0001 2.68298 23.9377 2.36906 23.8163 2.07617C23.695 1.78328 23.5172 1.51716 23.293 1.293Z" fill="black"/>
</g>
<defs>
<clipPath id="clip0_426_66">
<rect width="24" height="24" fill="white"/>
</clipPath>
</defs>
</svg>
