<svg width="29" height="26" viewBox="0 0 29 26" fill="none" xmlns="http://www.w3.org/2000/svg">
<path d="M14.2355 25.0297C13.975 25.0297 13.7141 24.9824 13.4529 24.8879C13.1917 24.7933 12.9618 24.6459 12.7633 24.4456L11.0567 22.8807C8.0625 20.1307 5.47116 17.5023 3.28271 14.9956C1.09424 12.4889 0 9.90669 0 7.24901C0 5.19166 0.69375 3.46916 2.08125 2.08151C3.46875 0.693838 5.18365 0 7.22595 0C8.39515 0 9.59754 0.296638 10.8331 0.889913C12.0687 1.48319 13.2076 2.56156 14.25 4.12504C15.3788 2.56156 16.5331 1.48319 17.7129 0.889913C18.8928 0.296638 20.0798 0 21.274 0C23.3163 0 25.0312 0.693838 26.4187 2.08151C27.8062 3.46916 28.4999 5.19166 28.4999 7.24901C28.4999 9.93554 27.3817 12.5394 25.1451 15.0605C22.9086 17.5817 20.3413 20.1836 17.4432 22.8663L15.7132 24.4544C15.5185 24.6516 15.2905 24.7968 15.0295 24.89C14.7684 24.9831 14.5037 25.0297 14.2355 25.0297ZM13.5057 6.02306C12.725 4.63459 11.7846 3.56728 10.6846 2.82113C9.58458 2.07498 8.4317 1.7019 7.22595 1.7019C5.6144 1.7019 4.29084 2.22354 3.25526 3.26681C2.21969 4.31006 1.7019 5.64145 1.7019 7.26098C1.7019 8.56838 2.10618 9.9264 2.91473 11.335C3.7233 12.7437 4.73916 14.1408 5.96231 15.5263C7.18546 16.9119 8.51241 18.2581 9.94316 19.5648C11.3739 20.8715 12.7086 22.0874 13.947 23.2124C14.0336 23.299 14.1346 23.3422 14.25 23.3422C14.3654 23.3422 14.4663 23.299 14.5529 23.2124C15.7914 22.1028 17.126 20.8908 18.5568 19.5763C19.9875 18.2619 21.313 16.9062 22.5332 15.509C23.7534 14.1119 24.7692 12.7089 25.5807 11.3001C26.3923 9.89121 26.798 8.54245 26.798 7.25378C26.798 5.63905 26.276 4.31006 25.232 3.26681C24.1881 2.22354 22.8675 1.7019 21.2702 1.7019C20.042 1.7019 18.8841 2.07112 17.7966 2.80957C16.7091 3.54805 15.7596 4.61921 14.948 6.02306C14.8519 6.17499 14.7432 6.28749 14.6221 6.36056C14.5009 6.43364 14.3668 6.47018 14.2197 6.47018C14.0726 6.47018 13.9346 6.43364 13.8057 6.36056C13.6769 6.28749 13.5769 6.17499 13.5057 6.02306Z" fill="black"/>
</svg>
