<svg width="29" height="26" viewBox="0 0 29 26" fill="none" xmlns="http://www.w3.org/2000/svg">
<path d="M14.2355 25.0297C13.9701 25.0297 13.7072 24.9797 13.4466 24.8797C13.186 24.7797 12.9606 24.6393 12.7702 24.4585L11.0567 22.8807C8.0625 20.1307 5.47116 17.5023 3.28271 14.9956C1.09424 12.4889 0 9.90669 0 7.24901C0 5.19134 0.69375 3.46875 2.08125 2.08125C3.46875 0.69375 5.18365 0 7.22595 0C8.39515 0 9.59754 0.296638 10.8331 0.889913C12.0687 1.48319 13.2076 2.56156 14.25 4.12504C15.3788 2.56156 16.5331 1.48319 17.7129 0.889913C18.8928 0.296638 20.0798 0 21.274 0C23.3163 0 25.0312 0.69375 26.4187 2.08125C27.8062 3.46875 28.4999 5.19134 28.4999 7.24901C28.4999 9.93554 27.3817 12.5394 25.1451 15.0605C22.9086 17.5817 20.3413 20.1836 17.4432 22.8663L15.7154 24.4585C15.525 24.6393 15.2971 24.7797 15.0317 24.8797C14.7663 24.9797 14.5009 25.0297 14.2355 25.0297Z" fill="#1F83EB"/>
</svg>
