<svg width="44" height="63" viewBox="0 0 44 63" fill="none" xmlns="http://www.w3.org/2000/svg">
<circle cx="24" cy="22" r="12" fill="white"/>
<path d="M21.875 60.9856C21.8173 60.919 21.7564 60.8486 21.6927 60.7746C21.1001 60.0868 20.252 59.0842 19.2335 57.8293C17.1956 55.3183 14.48 51.8024 11.7665 47.7805C9.05097 43.7558 6.34981 39.2424 4.33057 34.7352C2.30546 30.2149 1 25.7742 1 21.875C1 10.3492 10.3492 1 21.875 1C33.4008 1 42.75 10.3492 42.75 21.875C42.75 25.7742 41.4445 30.2149 39.4194 34.7352C37.4002 39.2424 34.699 43.7558 31.9835 47.7805C29.27 51.8024 26.5544 55.3183 24.5165 57.8293C23.498 59.0842 22.6499 60.0868 22.0573 60.7746C21.9936 60.8486 21.9327 60.919 21.875 60.9856ZM13.0625 21.875C13.0625 26.7398 17.0102 30.6875 21.875 30.6875C26.7398 30.6875 30.6875 26.7398 30.6875 21.875C30.6875 17.0102 26.7398 13.0625 21.875 13.0625C17.0102 13.0625 13.0625 17.0102 13.0625 21.875Z" fill="#1F83EB" stroke="black" stroke-width="2"/>
</svg>
