<svg width="29" height="25" viewBox="0 0 29 25" fill="none" xmlns="http://www.w3.org/2000/svg">
<path d="M14.5 0.125C14.5 0.125 5.99425 7.4675 1.24088 11.444C0.96175 11.697 0.75 12.0655 0.75 12.5C0.75 13.2604 1.36463 13.875 2.125 13.875H4.875V23.5C4.875 24.2604 5.48962 24.875 6.25 24.875H10.375C11.1354 24.875 11.75 24.259 11.75 23.5V18H17.25V23.5C17.25 24.259 17.8646 24.875 18.625 24.875H22.75C23.5104 24.875 24.125 24.2604 24.125 23.5V13.875H26.875C27.6354 13.875 28.25 13.2604 28.25 12.5C28.25 12.0655 28.0382 11.697 27.7234 11.444C23.003 7.4675 14.5 0.125 14.5 0.125Z" fill="#1F83EB"/>
</svg>
