<svg width="100%" height="100%" viewBox="0 0 37 37" fill="none" xmlns="http://www.w3.org/2000/svg">
<rect width="37" height="37" rx="10" fill="white"/>
<path d="M18.5 8C19.0384 8 19.4823 8.40534 19.543 8.92755L19.55 9.05L19.5503 10.4297C23.2049 10.9006 26.1 13.796 26.5705 17.4507L27.95 17.45C28.5299 17.45 29 17.9201 29 18.5C29 19.0384 28.5947 19.4823 28.0724 19.543L27.95 19.55L26.5703 19.5503C26.0994 23.2045 23.2045 26.0994 19.5503 26.5703L19.55 27.95C19.55 28.5299 19.0799 29 18.5 29C17.9616 29 17.5177 28.5947 17.457 28.0724L17.45 27.95L17.4507 26.5705C13.796 26.1 10.9006 23.2049 10.4297 19.5503L9.05 19.55C8.47011 19.55 8 19.0799 8 18.5C8 17.9616 8.40534 17.5177 8.92755 17.457L9.05 17.45L10.4295 17.4507C10.9001 13.7956 13.7956 10.9001 17.4507 10.4295L17.45 9.05C17.45 8.47011 17.9201 8 18.5 8ZM18.5 12.4625C15.1656 12.4625 12.4625 15.1656 12.4625 18.5C12.4625 21.8344 15.1656 24.5375 18.5 24.5375C21.8344 24.5375 24.5375 21.8344 24.5375 18.5C24.5375 15.1656 21.8344 12.4625 18.5 12.4625ZM18.5 14.3C20.8196 14.3 22.7 16.1804 22.7 18.5C22.7 20.8196 20.8196 22.7 18.5 22.7C16.1804 22.7 14.3 20.8196 14.3 18.5C14.3 16.1804 16.1804 14.3 18.5 14.3Z" fill="#1F83EB"/>
</svg>
