<svg width="20" height="18" viewBox="0 0 20 18" fill="none" xmlns="http://www.w3.org/2000/svg">
<path d="M13.3864 10.0225L12.3864 9.03371C12.7803 7.97004 12.5758 7.08614 11.7727 6.38202C10.9697 5.6779 10.0985 5.49813 9.15909 5.8427L8.15909 4.85393C8.41667 4.68914 8.70455 4.56929 9.02273 4.49438C9.34091 4.41948 9.66667 4.38202 10 4.38202C11.0758 4.38202 11.9886 4.75281 12.7386 5.49438C13.4886 6.23596 13.8636 7.13858 13.8636 8.20225C13.8636 8.53184 13.822 8.85768 13.7386 9.17978C13.6553 9.50187 13.5379 9.78277 13.3864 10.0225ZM16.3182 12.9213L15.4091 12.0225C16.1515 11.4831 16.7992 10.8801 17.3523 10.2135C17.9053 9.54682 18.3106 8.8764 18.5682 8.20225C17.8106 6.53933 16.6742 5.22472 15.1591 4.25843C13.6439 3.29213 12 2.80899 10.2273 2.80899C9.59091 2.80899 8.93939 2.86891 8.27273 2.98876C7.60606 3.10861 7.08333 3.25094 6.70455 3.41573L5.65909 2.35955C6.18939 2.11985 6.86742 1.91011 7.69318 1.73034C8.51894 1.55056 9.32576 1.46067 10.1136 1.46067C12.2803 1.46067 14.2614 2.07116 16.0568 3.29213C17.8523 4.51311 19.1667 6.14981 20 8.20225C19.6061 9.16105 19.0985 10.0375 18.4773 10.8315C17.8561 11.6255 17.1364 12.3221 16.3182 12.9213ZM17.6364 18L13.8182 14.2921C13.2879 14.5019 12.6894 14.6629 12.0227 14.7753C11.3561 14.8876 10.6818 14.9438 10 14.9438C7.78788 14.9438 5.7803 14.3333 3.97727 13.1124C2.17424 11.8914 0.848485 10.2547 0 8.20225C0.30303 7.42322 0.723485 6.66292 1.26136 5.92135C1.79924 5.17978 2.45455 4.47191 3.22727 3.79775L0.363636 0.966292L1.31818 0L18.5227 17.0112L17.6364 18ZM4.15909 4.74157C3.59848 5.14607 3.05682 5.6779 2.53409 6.33708C2.01136 6.99625 1.63636 7.61798 1.40909 8.20225C2.18182 9.86517 3.3447 11.1798 4.89773 12.1461C6.45076 13.1124 8.21212 13.5955 10.1818 13.5955C10.6818 13.5955 11.1742 13.5655 11.6591 13.5056C12.1439 13.4457 12.5076 13.3558 12.75 13.236L11.2955 11.7978C11.1288 11.8727 10.9242 11.9288 10.6818 11.9663C10.4394 12.0037 10.2121 12.0225 10 12.0225C8.93939 12.0225 8.0303 11.6554 7.27273 10.9213C6.51515 10.1873 6.13636 9.2809 6.13636 8.20225C6.13636 7.97753 6.1553 7.75281 6.19318 7.52809C6.23106 7.30337 6.28788 7.10112 6.36364 6.92135L4.15909 4.74157Z" fill="#D9D9D9"/>
</svg>
