<svg width="20" height="13" viewBox="0 0 20 13" fill="none" xmlns="http://www.w3.org/2000/svg">
<path d="M10.0027 10.1833C11.0767 10.1833 11.9886 9.82498 12.7386 9.10828C13.4886 8.39159 13.8636 7.52131 13.8636 6.49744C13.8636 5.47359 13.4877 4.60417 12.736 3.88917C11.9842 3.17417 11.0713 2.81667 9.99732 2.81667C8.92335 2.81667 8.01136 3.17502 7.26136 3.89172C6.51136 4.60841 6.13636 5.47869 6.13636 6.50256C6.13636 7.52641 6.51226 8.39583 7.26405 9.11083C8.01582 9.82583 8.9287 10.1833 10.0027 10.1833ZM9.99466 8.92667C9.2861 8.92667 8.68561 8.69025 8.19318 8.21741C7.70076 7.74456 7.45455 7.17039 7.45455 6.49491C7.45455 5.81941 7.70254 5.24694 8.19852 4.7775C8.69452 4.30806 9.2968 4.07333 10.0053 4.07333C10.7139 4.07333 11.3144 4.30975 11.8068 4.78259C12.2992 5.25544 12.5455 5.82961 12.5455 6.50509C12.5455 7.18059 12.2975 7.75306 11.8015 8.2225C11.3055 8.69194 10.7032 8.92667 9.99466 8.92667ZM10 13C7.78788 13 5.78788 12.4006 4 11.2017C2.21212 10.0028 0.878788 8.43556 0 6.5C0.878788 4.56444 2.21212 2.99722 4 1.79833C5.78788 0.599444 7.78788 0 10 0C12.2121 0 14.2121 0.599444 16 1.79833C17.7879 2.99722 19.1212 4.56444 20 6.5C19.1212 8.43556 17.7879 10.0028 16 11.2017C14.2121 12.4006 12.2121 13 10 13ZM9.99616 11.7C11.8321 11.7 13.5189 11.2269 15.0568 10.2808C16.5947 9.33472 17.7652 8.07444 18.5682 6.5C17.7652 4.92556 16.596 3.66528 15.0607 2.71917C13.5253 1.77306 11.8397 1.3 10.0038 1.3C8.16795 1.3 6.48106 1.77306 4.94318 2.71917C3.4053 3.66528 2.22727 4.92556 1.40909 6.5C2.22727 8.07444 3.40402 9.33472 4.93934 10.2808C6.47467 11.2269 8.16028 11.7 9.99616 11.7Z" fill="#D9D9D9"/>
</svg>
