<svg width="1202" height="677" viewBox="0 0 1202 677" fill="none" xmlns="http://www.w3.org/2000/svg">
<g opacity="0.8" clip-path="url(#clip0_496_193)">
<path d="M1202 0H0V677H1202V0Z" fill="#A0D2DC"/>
<path opacity="0.2" d="M0 677V225.667C50.9972 201.951 101.994 178.235 164.023 178.653C226.052 179.071 299.112 203.623 364.982 223.159C430.853 242.695 489.534 257.214 539.648 250.114C589.761 243.014 631.307 214.294 689.272 228.801C747.237 243.308 821.62 301.042 868.32 305.277C915.019 309.512 934.034 260.247 1001.04 235.696C1068.05 211.146 1183.05 211.309 1224.54 213.756C1266.03 216.204 1234.01 220.935 1202 225.667V677H0Z" fill="#1F83EB"/>
<path opacity="0.4" d="M0 677V451.333C56.7228 422.511 113.446 393.689 164.023 399.931C214.6 406.174 259.032 447.48 319.281 480.168C379.531 512.857 455.597 536.927 522.119 531.57C588.64 526.213 645.617 491.429 694.28 480.168C742.944 468.908 783.295 481.17 832.009 453.214C880.724 425.258 937.803 357.084 1016.07 367.962C1094.33 378.84 1193.77 468.769 1228.29 495.84C1262.81 522.91 1232.41 487.122 1202 451.333V677H0Z" fill="#1F83EB"/>
</g>
<defs>
<clipPath id="clip0_496_193">
<rect width="1202" height="677" fill="white"/>
</clipPath>
</defs>
</svg>
